<?xml version="1.0" encoding="utf-8"?>
<svg version="1.1" xmlns:xlink="http://www.w3.org/1999/xlink" width="162px" height="48px" xmlns="http://www.w3.org/2000/svg">
  <defs>
    <mask fill="white" id="clip38">
      <path d="M 0 32  L 0 16  C 0 11.4346628893918  0 0  0 0  C 0 0  5.82063347343203 0  8.02476780185754 0  L 153.975232198142 0  C 156.135300943182 0  162 0  162 0  C 162 0  162 11.3468037323939  162 16  L 162 32  C 162 40.96  158.469102167183 48  153.975232198142 48  L 8.02476780185754 48  C 5.95140234477202 48  0 48  0 48  C 0 48  0 36.8260676380333  0 32  Z " fill-rule="evenodd" />
    </mask>
  </defs>
  <g transform="matrix(1 0 0 1 -161 -128 )">
    <path d="M 0 32  L 0 16  C 0 11.4346628893918  0 0  0 0  C 0 0  5.82063347343203 0  8.02476780185754 0  L 153.975232198142 0  C 156.135300943182 0  162 0  162 0  C 162 0  162 11.3468037323939  162 16  L 162 32  C 162 40.96  158.469102167183 48  153.975232198142 48  L 8.02476780185754 48  C 5.95140234477202 48  0 48  0 48  C 0 48  0 36.8260676380333  0 32  Z " fill-rule="nonzero" fill="#e6e6e6" stroke="none" transform="matrix(1 0 0 1 161 128 )" />
    <path d="M 0 32  L 0 16  C 0 11.4346628893918  0 0  0 0  C 0 0  5.82063347343203 0  8.02476780185754 0  L 153.975232198142 0  C 156.135300943182 0  162 0  162 0  C 162 0  162 11.3468037323939  162 16  L 162 32  C 162 40.96  158.469102167183 48  153.975232198142 48  L 8.02476780185754 48  C 5.95140234477202 48  0 48  0 48  C 0 48  0 36.8260676380333  0 32  Z " stroke-width="2" stroke="#e6e6e6" fill="none" transform="matrix(1 0 0 1 161 128 )" mask="url(#clip38)" />
  </g>
</svg>