<?xml version="1.0" encoding="utf-8"?>
<svg version="1.1" xmlns:xlink="http://www.w3.org/1999/xlink" width="11px" height="19px" xmlns="http://www.w3.org/2000/svg">
  <g transform="matrix(1 0 0 1 -138 -149 )">
    <path d="M 10.6654482758621 18.6656  C 10.4439310344828 18.88904  10.1526206896552 19  9.86131034482759 19  C 9.57 19  9.27868965517241 18.88904  9.05641379310345 18.66636  L 0.712344827586207 10.30712  C 0.267793103448276 9.86252  0.267793103448276 9.14052  0.712344827586207 8.69516  L 9.05641379310345 0.335160000000001  C 9.50096551724138 -0.110199999999999  10.2208965517241 -0.110199999999999  10.6654482758621 0.335160000000001  C 11.11 0.779760000000001  11.11 1.50176  10.6654482758621 1.94712  L 3.12627586206897 9.50076  L 10.6654482758621 17.05364  C 11.11 17.499  11.11 18.22024  10.6654482758621 18.6656  Z " fill-rule="nonzero" fill="#5e5e5e" stroke="none" transform="matrix(1 0 0 1 138 149 )" />
  </g>
</svg>