<?xml version="1.0" encoding="utf-8"?>
<svg version="1.1" xmlns:xlink="http://www.w3.org/1999/xlink" width="360px" height="774px" xmlns="http://www.w3.org/2000/svg">
  <defs>
    <mask fill="white" id="clip34">
      <path d="M 0 738.787982832618  L 0 35.8763948497856  C 0 16.1576652360517  7.96607843137248 0.664377682403671  28.9166666666667 0.664377682403671  L 70.8717596775254 0.664377682403671  C 70.8717596775254 0.664377682403671  76.6986809450013 -0.105159169928886  78.964705882353 2.65751072961397  C 80.5393744546542 4.5772996051666  78.4465076202793 15.9888374297309  84.9882352941176 22.1459227467813  C 89.6261969843847 26.5111802518267  96.6588235294117 30  96.6588235294117 30  L 261.929411764706 30  C 261.929411764706 30  267.995294117647 30.3711533078331  273.529411764706 25.3570815450646  C 281.166225262957 18.437906102623  279.144385026738 10.2240343347642  281.951871657754 2.65751072961397  C 283.18369271204 1.99313304721054  285.647334820612 0.664377682403671  285.647334820612 0.664377682403671  L 329 0.664377682403671  C 349.950588235294 0.664377682403671  360 16.1576652360517  360 35.8763948497856  L 360 738.787982832618  C 360 758.506712446352  343.538823529412 774  322.588235294118 774  L 37.4117647058824 774  C 16.4611764705882 774  0 758.506712446352  0 738.787982832618  Z " fill-rule="evenodd" />
    </mask>
  </defs>
  <g transform="matrix(1 0 0 1 -125 -96 )">
    <path d="M 0 738.787982832618  L 0 35.8763948497856  C 0 16.1576652360517  7.96607843137248 0.664377682403671  28.9166666666667 0.664377682403671  L 70.8717596775254 0.664377682403671  C 70.8717596775254 0.664377682403671  76.6986809450013 -0.105159169928886  78.964705882353 2.65751072961397  C 80.5393744546542 4.5772996051666  78.4465076202793 15.9888374297309  84.9882352941176 22.1459227467813  C 89.6261969843847 26.5111802518267  96.6588235294117 30  96.6588235294117 30  L 261.929411764706 30  C 261.929411764706 30  267.995294117647 30.3711533078331  273.529411764706 25.3570815450646  C 281.166225262957 18.437906102623  279.144385026738 10.2240343347642  281.951871657754 2.65751072961397  C 283.18369271204 1.99313304721054  285.647334820612 0.664377682403671  285.647334820612 0.664377682403671  L 329 0.664377682403671  C 349.950588235294 0.664377682403671  360 16.1576652360517  360 35.8763948497856  L 360 738.787982832618  C 360 758.506712446352  343.538823529412 774  322.588235294118 774  L 37.4117647058824 774  C 16.4611764705882 774  0 758.506712446352  0 738.787982832618  Z " fill-rule="nonzero" fill="#ffffff" stroke="none" transform="matrix(1 0 0 1 125 96 )" />
    <path d="M 0 738.787982832618  L 0 35.8763948497856  C 0 16.1576652360517  7.96607843137248 0.664377682403671  28.9166666666667 0.664377682403671  L 70.8717596775254 0.664377682403671  C 70.8717596775254 0.664377682403671  76.6986809450013 -0.105159169928886  78.964705882353 2.65751072961397  C 80.5393744546542 4.5772996051666  78.4465076202793 15.9888374297309  84.9882352941176 22.1459227467813  C 89.6261969843847 26.5111802518267  96.6588235294117 30  96.6588235294117 30  L 261.929411764706 30  C 261.929411764706 30  267.995294117647 30.3711533078331  273.529411764706 25.3570815450646  C 281.166225262957 18.437906102623  279.144385026738 10.2240343347642  281.951871657754 2.65751072961397  C 283.18369271204 1.99313304721054  285.647334820612 0.664377682403671  285.647334820612 0.664377682403671  L 329 0.664377682403671  C 349.950588235294 0.664377682403671  360 16.1576652360517  360 35.8763948497856  L 360 738.787982832618  C 360 758.506712446352  343.538823529412 774  322.588235294118 774  L 37.4117647058824 774  C 16.4611764705882 774  0 758.506712446352  0 738.787982832618  Z " stroke-width="2" stroke="#e4e4e4" fill="none" transform="matrix(1 0 0 1 125 96 )" mask="url(#clip34)" />
  </g>
</svg>