<?xml version="1.0" encoding="utf-8"?>
<svg version="1.1" xmlns:xlink="http://www.w3.org/1999/xlink" width="22px" height="22px" xmlns="http://www.w3.org/2000/svg">
  <g transform="matrix(1 0 0 1 -225 -818 )">
    <path d="M 22 11.5913978494624  C 22 10.9605734767025  21.5875 10.4874551971326  21.0375 10.4874551971326  L 20.625 10.4874551971326  L 11.4125 0.236559139785013  C 11.1375 -0.0788530465949251  10.8625 -0.0788530465949251  10.5875 0.236559139785013  L 1.23750000000001 10.4874551971326  L 0.962499999999977 10.4874551971326  C 0.412500000000023 10.4874551971326  0 10.9605734767025  0 11.5913978494624  L 0 12.5376344086022  C 0 13.1684587813621  0.412500000000023 13.6415770609319  0.962499999999977 13.6415770609319  L 3.4375 13.6415770609319  L 3.4375 20.8960573476703  C 3.4375 21.5268817204301  3.85000000000002 22  4.39999999999998 22  L 8.38749999999999 22  C 8.9375 22  9.35000000000002 21.5268817204301  9.35000000000002 20.8960573476703  L 9.35000000000002 15.0609318996416  L 12.65 15.0609318996416  L 12.65 20.8960573476703  C 12.65 21.5268817204301  13.0625 22  13.6125 22  L 17.6 22  C 18.15 22  18.5625 21.5268817204301  18.5625 20.8960573476703  L 18.5625 13.6415770609319  L 21.0375 13.6415770609319  C 21.5875 13.6415770609319  22 13.1684587813621  22 12.5376344086022  L 22 11.5913978494624  Z " fill-rule="nonzero" fill="#707070" stroke="none" transform="matrix(1 0 0 1 225 818 )" />
  </g>
</svg>