<?xml version="1.0" encoding="utf-8"?>
<svg version="1.1" xmlns:xlink="http://www.w3.org/1999/xlink" width="22px" height="22px" xmlns="http://www.w3.org/2000/svg">
  <g transform="matrix(1 0 0 1 -355 -819 )">
    <path d="M 18.8349812400794 18.6368722876984  C 16.759131125 20.7431664305556  13.9917198492063 21.9024382718254  11.0406099047619 21.9024382718254  C 8.09044650595238 21.9024382718254  5.32211070634921 20.7431664087302  3.24632661309524 18.6368722876984  C 3.15580905357143 18.5455402480159  3.10744644047619 18.4191634960317  3.11462269642857 18.2901671726191  C 3.22484191071429 16.2564719821429  4.56420230357143 15.6589284761905  6.99386774603175 14.5749191369048  C 7.355783875 14.4136517162698  7.74459989285714 14.239792875  8.16392598214286 14.046342422619  C 8.43266098015873 13.9217927400794  8.67280104166667 13.2426469345238  8.87256922619048 12.6316754623016  C 7.81270818253968 11.7572741349206  7.23396378571429 10.2347213571429  7.23396378571429 8.29682684722222  C 7.23396378571429 5.33636135912699  9.28467503769841 4.28594390277778  11.0406319047619 4.28594390277778  C 12.7966107936508 4.28594390277778  14.8473220456349 5.33633933730159  14.8473220456349 8.29682684722222  C 14.8473220456349 10.2351175972222  14.2685996488095 11.7572741349206  13.2087166051587 12.6316754623016  C 13.407604265873 13.2426469345238  13.647722327381 13.921770718254  13.9182843948413 14.046342422619  C 14.3366418948413 14.239792875  14.7272630039683 14.4136517380952  15.0882765873016 14.5749191369048  C 17.5180080734127 15.6598750218254  18.8564659424603 16.2573745277778  18.9657606111111 18.2901671726191  C 18.9729368670635 18.4191634960317  18.9254327559524 18.5455402480159  18.8349812400794 18.6368722876984  Z M 7.36828727380952 15.4125807480159  C 5.01480887896825 16.4625799206349  4.18786764087302 16.8908212916667  4.04722644246032 18.1405666706349  C 5.93220163293651 19.9763207460317  8.40761016071429 20.9850675396825  11.0405878829365 20.9850675396825  C 13.6745561944444 20.9850675396825  16.1490181547619 19.9763207460318  18.0330908214286 18.1405666706349  C 17.8924276011905 16.8908433134921  17.0664549305556 16.4625799424603  14.7146935833333 15.4125807261905  C 14.3500918829365 15.2504548035714  13.9558166130952 15.0748349146825  13.5338489742063 14.8795353710317  C 12.87090475 14.5731140892857  12.5824240972222 13.6781085833333  12.2769493611111 12.7310863035714  L 12.2348164365079 12.6021120019841  C 12.1712208095238 12.4068344801587  12.2455587876984 12.1926697619048  12.4166660138889 12.0789284742063  C 13.3923272301587 11.4280914305556  13.9298632698413 10.084636593254  13.9298632698413 8.29682689087301  C 13.9298632698413 5.42643870039683  11.7179066190476 5.20335872222222  11.0405658829365 5.20335872222222  C 10.3623886666667 5.20335872222222  8.15131251785714 5.42643870039683  8.15131251785714 8.29682689087301  C 8.15131251785714 10.0841523095238  8.68884853571429 11.4276071468254  9.66539027579365 12.0789284742063  C 9.8355949781746 12.1926697619048  9.90907445436508 12.4068344801587  9.84635935119048 12.6021120019841  L 9.80517299404762 12.7284447539683  C 9.49875171230159 13.6771840595238  9.21029303769841 14.5731141111111  8.54910988293651 14.8795353928571  C 8.1262617202381 15.0738663690476  7.73205249404762 15.2494862579365  7.36828727380952 15.4125807480159  Z M 18.8349592400794 18.6368722876984  C 18.7471272738095 18.7264653015873  18.6288953234127 18.773947390873  18.5079117361111 18.773947390873  C 18.4532974345238 18.773947390873  18.3986611111111 18.7641515853175  18.3457858134921 18.7444059087302  C 18.1755811111111 18.6798417142857  18.0600127321429 18.5213259305556  18.0501068829365 18.3403788769841  C 17.9739638353175 16.9338347400794  17.1882970198413 16.5171942440476  14.7146935615079 15.4125807261905  C 14.3500918611111 15.2504548035714  13.9558165912698 15.0748349146825  13.533848952381 14.8795353710317  C 12.8709047281746 14.5731140892857  12.5824240753968 13.6781085833333  12.2769493392857 12.7310863035714  L 12.2348164146825 12.6021120019841  C 12.1712207876984 12.4068344801587  12.245558765873 12.1926697619048  12.4166659920635 12.0789284742063  C 13.3923272083333 11.4280914305556  13.9298632480159 10.084636593254  13.9298632480159 8.29682689087301  C 13.9298632480159 5.42643870039683  11.7179065972222 5.20335872222222  11.0405658611111 5.20335872222222  C 10.3623886448413 5.20335872222222  8.15131249603175 5.42643870039683  8.15131249603175 8.29682689087301  C 8.15131249603175 10.0841523095238  8.68884851388889 11.4276071468254  9.66539025396825 12.0789284742063  C 9.83559495634921 12.1926697619048  9.90907443253968 12.4068344801587  9.84635932936508 12.6021120019841  L 9.80517297222222 12.7284447539683  C 9.49875169047619 13.6771840595238  9.21029301587302 14.5731141111111  8.54910986111111 14.8795353928571  C 8.1262616984127 15.0738663690476  7.73205247222222 15.2494862579365  7.36828725198413 15.4125807480159  C 4.89384731349206 16.5163137420635  4.10721190873016 16.9328881944444  4.03018835912698 18.3403788988095  C 4.02122905555556 18.5213479742064  3.90478017460318 18.6798637361111  3.73543397420635 18.7444059305556  C 3.56791486507937 18.8088820813492  3.37442039087302 18.767673702381  3.24630459126984 18.6368723095238  C 1.21348992460317 16.5754627063492  0.0945239166666667 13.8474547400794  0.0945239166666667 10.9563743055556  C 0.0945239166666667 4.92066743055556  5.0049470515873 0.0102442956349222  11.0406099047619 0.0102442956349222  C 17.0763167797619 0.0102442956349222  21.9867178928571 4.92066743055556  21.9867178928571 10.9563743055556  C 21.9867178928571 13.8474547400794  20.8668493611111 16.5754627063492  18.8349592400794 18.6368722876984  Z M 14.8472780019841 8.29684886904762  C 14.8472780238095 10.2351396190476  14.2685556269841 11.757296156746  13.2086945833333 12.631697484127  C 13.4075822440476 13.2426689563492  13.6477003055556 13.9217927400794  13.9182623730159 14.0463644444444  C 14.3366198730159 14.2398148968254  14.7272409821429 14.4136737599206  15.0882545654762 14.5749411587302  C 17.0807853988095 15.4645314563492  18.3386095575397 16.0263258353175  18.788313609127 17.3208457103175  C 20.2647711269841 15.5299321527778  21.0693030952381 13.3018399642857  21.0693030952381 10.9563963492063  C 21.0693030952381 5.42648272222222  16.5701052480159 0.927659093253968  11.0405878611111 0.927659093253968  C 5.51023397222222 0.927659093253968  1.01189462698413 5.42646070039683  1.01189462698413 10.9563963492063  C 1.01189462698413 13.3018399642857  1.81552407142857 15.5290736507937  3.29286211309524 17.3208457103175  C 3.74168564087302 16.0263038353175  5.00135891269841 15.4636729543651  6.99382370238095 14.5749411587302  C 7.35573983134921 14.4136737380952  7.74455584920635 14.2398148968254  8.16388193849206 14.0463644444444  C 8.43261693650794 13.9218147619048  8.67275699801587 13.2426689563492  8.87252518253968 12.631697484127  C 7.81266413888889 11.757296156746  7.23391974206349 10.2347433789683  7.23391974206349 8.29684886904762  C 7.23391974206349 5.33638338095238  9.28463099404762 4.28596592460318  11.0405878611111 4.28596592460318  C 12.79656675 4.28596592460318  14.8472780019841 5.33636135912699  14.8472780019841 8.29684886904762  Z " fill-rule="nonzero" fill="#666666" stroke="none" transform="matrix(1 0 0 1 355 819 )" />
  </g>
</svg>