<?xml version="1.0" encoding="utf-8"?>
<svg version="1.1" xmlns:xlink="http://www.w3.org/1999/xlink" width="9px" height="14px" xmlns="http://www.w3.org/2000/svg">
  <g transform="matrix(1 0 0 1 -436 -220 )">
    <path d="M 7.87212208830192 7.53482572471216  C 7.92104644325673 7.48354953741773  7.94694755859376 7.42079269891042  7.98033742547295 7.36208966128697  C 7.98955908717124 7.34423428248351  8.00450561266456 7.3292877569902  8.01258230879944 7.31084443359373  C 8.17089790810053 6.98155667660365  8.11906469983552 6.57861935649669  7.83873223941202 6.31379042454773  L 1.48404466745467 0.303368076685842  C 1.13748949424343 -0.0241867521588119  0.591214041940873 -0.00865226408302533  0.263071250514088 0.337345888157984  C -0.0644835783306803 0.683901061369284  -0.049506111225412 1.23017651367184  0.297049061986058 1.55831930509862  L 5.99894786698212 6.95222062859784  L 0.319484321032007 12.4261462068256  C -0.0236049958880926 12.7571359503495  -0.0339716411390896 13.3034423442639  0.297049061986058 13.6471196237665  C 0.466288309518973 13.8232596422697  0.692528590152051 13.9113605931333  0.918768870785414 13.9113605931333  C 1.13464252415702 13.9113605931333  1.35051615953938 13.8307793174342  1.51802247892687 13.6695858244243  L 7.81515199681343 7.60042951531659  C 7.8272515702098 7.58832994192016  7.83183145045246 7.57165048828131  7.84393102384882 7.55899391190383  C 7.85315268554689 7.55036021278784  7.86293136821553 7.54401644479856  7.87212208830192 7.53482572471216  Z " fill-rule="nonzero" fill="#969799" stroke="none" transform="matrix(1 0 0 1 436 220 )" />
  </g>
</svg>