<?xml version="1.0" encoding="utf-8"?>
<svg version="1.1" xmlns:xlink="http://www.w3.org/1999/xlink" width="15px" height="15px" xmlns="http://www.w3.org/2000/svg">
  <g transform="matrix(1 0 0 1 -183 -206 )">
    <path d="M 4.03846153846154 11.25  C 4.03846153846154 11.328125  4.01141826923077 11.3972355769231  3.95733173076923 11.4573317307692  L 1.64963942307692 13.7650240384615  C 1.58353365384615 13.8191105769231  1.51442307692308 13.8461538461538  1.44230769230769 13.8461538461538  C 1.37019230769231 13.8461538461538  1.30108173076923 13.8191105769231  1.23497596153846 13.7650240384615  C 1.18088942307692 13.7049278846154  1.15384615384615 13.6358173076923  1.15384615384615 13.5576923076923  C 1.15384615384615 13.4795673076923  1.18088942307692 13.4104567307692  1.23497596153846 13.3503605769231  L 3.54266826923077 11.0426682692308  C 3.60276442307692 10.9885817307692  3.671875 10.9615384615385  3.75 10.9615384615385  C 3.828125 10.9615384615385  3.89723557692308 10.9885817307692  3.95733173076923 11.0426682692308  C 4.01141826923077 11.1027644230769  4.03846153846154 11.171875  4.03846153846154 11.25  Z M 5.39963942307692 11.6195913461538  C 5.45372596153846 11.6736778846154  5.48076923076923 11.7427884615385  5.48076923076923 11.8269230769231  L 5.48076923076923 14.7115384615385  C 5.48076923076923 14.7956730769231  5.45372596153846 14.8647836538462  5.39963942307692 14.9188701923077  C 5.34555288461538 14.9729567307692  5.27644230769231 15  5.19230769230769 15  C 5.10817307692308 15  5.0390625 14.9729567307692  4.98497596153846 14.9188701923077  C 4.93088942307692 14.8647836538462  4.90384615384615 14.7956730769231  4.90384615384615 14.7115384615385  L 4.90384615384615 11.8269230769231  C 4.90384615384615 11.7427884615385  4.93088942307692 11.6736778846154  4.98497596153846 11.6195913461538  C 5.0390625 11.5655048076923  5.10817307692308 11.5384615384615  5.19230769230769 11.5384615384615  C 5.27644230769231 11.5384615384615  5.34555288461538 11.5655048076923  5.39963942307692 11.6195913461538  Z M 3.38040865384615 9.60036057692308  C 3.43449519230769 9.65444711538462  3.46153846153846 9.72355769230769  3.46153846153846 9.80769230769231  C 3.46153846153846 9.89182692307692  3.43449519230769 9.9609375  3.38040865384615 10.0150240384615  C 3.32632211538462 10.0691105769231  3.25721153846154 10.0961538461538  3.17307692307692 10.0961538461538  L 0.288461538461538 10.0961538461538  C 0.204326923076923 10.0961538461538  0.135216346153846 10.0691105769231  0.0811298076923077 10.0150240384615  C 0.0270432692307692 9.9609375  0 9.89182692307692  0 9.80769230769231  C 0 9.72355769230769  0.0270432692307692 9.65444711538462  0.0811298076923077 9.60036057692308  C 0.135216346153846 9.54627403846154  0.204326923076923 9.51923076923077  0.288461538461538 9.51923076923077  L 3.17307692307692 9.51923076923077  C 3.25721153846154 9.51923076923077  3.32632211538462 9.54627403846154  3.38040865384615 9.60036057692308  Z M 14.0985576923077 9.12259615384615  C 14.6033653846154 9.63942307692308  14.8557692307692 10.2524038461538  14.8557692307692 10.9615384615385  C 14.8557692307692 11.6826923076923  14.6003605769231 12.2926682692308  14.0895432692308 12.7914663461538  L 12.7644230769231 14.1075721153846  C 12.265625 14.6063701923077  11.6556490384615 14.8557692307692  10.9344951923077 14.8557692307692  C 10.2073317307692 14.8557692307692  9.59435096153846 14.6003605769231  9.09555288461539 14.0895432692308  L 6.08473557692308 11.0697115384615  C 5.95853365384615 10.9435096153846  5.83233173076923 10.7752403846154  5.70612980769231 10.5649038461538  L 7.86057692307692 10.4026442307692  L 10.3215144230769 12.8725961538462  C 10.4837740384615 13.0348557692308  10.6881009615385 13.1174879807692  10.9344951923077 13.1204927884615  C 11.1808894230769 13.1234975961538  11.3852163461538 13.0438701923077  11.5474759615385 12.8816105769231  L 12.8725961538462 11.5655048076923  C 13.0408653846154 11.3972355769231  13.125 11.1959134615385  13.125 10.9615384615385  C 13.125 10.7211538461538  13.0408653846154 10.5168269230769  12.8725961538462 10.3485576923077  L 10.4026442307692 7.86959134615385  L 10.5649038461538 5.71514423076923  C 10.7752403846154 5.84134615384615  10.9435096153846 5.96754807692308  11.0697115384615 6.09375  L 14.0985576923077 9.12259615384615  Z M 8.91526442307692 3.93028846153846  C 9.04146634615385 4.05649038461538  9.16766826923077 4.22475961538462  9.29387019230769 4.43509615384615  L 7.13942307692308 4.59735576923077  L 4.67848557692308 2.12740384615385  C 4.51021634615385 1.95913461538461  4.30588942307692 1.875  4.06550480769231 1.875  C 3.83112980769231 1.875  3.62680288461539 1.95612980769231  3.45252403846154 2.11838942307692  L 2.12740384615385 3.43449519230769  C 1.95913461538462 3.60276442307692  1.875 3.80408653846154  1.875 4.03846153846154  C 1.875 4.27884615384615  1.95913461538462 4.48317307692308  2.12740384615385 4.65144230769231  L 4.59735576923077 7.12139423076923  L 4.43509615384615 9.28485576923077  C 4.22475961538462 9.15865384615385  4.05649038461538 9.03245192307692  3.93028846153846 8.90625  L 0.901442307692308 5.87740384615385  C 0.396634615384615 5.36057692307692  0.144230769230769 4.74759615384615  0.144230769230769 4.03846153846154  C 0.144230769230769 3.31730769230769  0.399639423076923 2.70733173076923  0.910456730769231 2.20853365384615  L 2.23557692307692 0.892427884615384  C 2.734375 0.393629807692307  3.34435096153846 0.144230769230769  4.06550480769231 0.144230769230769  C 4.79266826923077 0.144230769230769  5.40564903846154 0.399639423076923  5.90444711538462 0.910456730769231  L 8.91526442307692 3.93028846153846  Z M 14.9188701923077 4.98497596153846  C 14.9729567307692 5.0390625  15 5.10817307692308  15 5.19230769230769  C 15 5.27644230769231  14.9729567307692 5.34555288461538  14.9188701923077 5.39963942307692  C 14.8647836538462 5.45372596153846  14.7956730769231 5.48076923076923  14.7115384615385 5.48076923076923  L 11.8269230769231 5.48076923076923  C 11.7427884615385 5.48076923076923  11.6736778846154 5.45372596153846  11.6195913461538 5.39963942307692  C 11.5655048076923 5.34555288461538  11.5384615384615 5.27644230769231  11.5384615384615 5.19230769230769  C 11.5384615384615 5.10817307692308  11.5655048076923 5.0390625  11.6195913461538 4.98497596153846  C 11.6736778846154 4.93088942307692  11.7427884615385 4.90384615384615  11.8269230769231 4.90384615384615  L 14.7115384615385 4.90384615384615  C 14.7956730769231 4.90384615384615  14.8647836538462 4.93088942307692  14.9188701923077 4.98497596153846  Z M 10.0150240384615 0.0811298076923078  C 10.0691105769231 0.135216346153847  10.0961538461538 0.204326923076922  10.0961538461538 0.288461538461539  L 10.0961538461538 3.17307692307692  C 10.0961538461538 3.25721153846154  10.0691105769231 3.32632211538462  10.0150240384615 3.38040865384615  C 9.9609375 3.43449519230769  9.89182692307693 3.46153846153846  9.80769230769231 3.46153846153846  C 9.72355769230769 3.46153846153846  9.65444711538462 3.43449519230769  9.60036057692308 3.38040865384615  C 9.54627403846154 3.32632211538462  9.51923076923077 3.25721153846154  9.51923076923077 3.17307692307692  L 9.51923076923077 0.288461538461539  C 9.51923076923077 0.204326923076922  9.54627403846154 0.135216346153847  9.60036057692308 0.0811298076923078  C 9.65444711538462 0.0270432692307687  9.72355769230769 0  9.80769230769231 0  C 9.89182692307693 0  9.9609375 0.0270432692307687  10.0150240384615 0.0811298076923078  Z M 13.8461538461538 1.44230769230769  C 13.8461538461538 1.52043269230769  13.8191105769231 1.58954326923077  13.7650240384615 1.64963942307692  L 11.4573317307692 3.95733173076923  C 11.3912259615385 4.01141826923077  11.3221153846154 4.03846153846154  11.25 4.03846153846154  C 11.1778846153846 4.03846153846154  11.1087740384615 4.01141826923077  11.0426682692308 3.95733173076923  C 10.9885817307692 3.89723557692308  10.9615384615385 3.828125  10.9615384615385 3.75  C 10.9615384615385 3.671875  10.9885817307692 3.60276442307692  11.0426682692308 3.54266826923077  L 13.3503605769231 1.23497596153846  C 13.4104567307692 1.18088942307692  13.4795673076923 1.15384615384615  13.5576923076923 1.15384615384615  C 13.6358173076923 1.15384615384615  13.7049278846154 1.18088942307692  13.7650240384615 1.23497596153846  C 13.8191105769231 1.29507211538461  13.8461538461538 1.36418269230769  13.8461538461538 1.44230769230769  Z " fill-rule="nonzero" fill="#aaaaaa" stroke="none" transform="matrix(1 0 0 1 183 206 )" />
  </g>
</svg>