<?xml version="1.0" encoding="utf-8"?>
<svg version="1.1" xmlns:xlink="http://www.w3.org/1999/xlink" width="118px" height="24px" xmlns="http://www.w3.org/2000/svg">
  <g transform="matrix(1 0 0 1 -1060 -404 )">
    <path d="M 78.1049313129195 8.87437499999999  C 75.9184170511744 17.5775  68.1350697357382 23.656875  59.1750943791947 23.656875  C 50.1976405201342 23.656875  42.3975880872483 17.576875  40.2085989932886 8.87359375  L 40.0321125209732 8.17203124999998  L 4.24634804949665 8.15046874999996  C 2.0217535089094 8.14556446690028  0.220074143051932 6.32409575826483  0.217011849832204 4.07687499999997  C 0.220505908058954 1.83062018309693  2.02270535847555 0.0107921393379797  4.24634804949665 0  L 43.6520186661074 0  C 45.8752807347483 0.0392696524114058  47.6756190872168 1.85959296025209  47.6791893875838 4.10546875  C 47.6791893875838 10.50390625  52.7286204907718 15.51515625  59.1750943791947 15.51515625  C 65.5985213926174 15.51515625  70.6304739932885 10.5040625  70.6304739932885 4.10562499999998  C 70.6352346271278 1.85936975857732  72.4361704673164 0.0393511110631835  74.659810192953 0  L 113.700597734899 0  C 115.923461094799 0.00874999999996362  117.729933934564 1.83203125  117.731480704698 4.07593749999995  C 117.733027474832 6.31984374999996  115.92670931208 8.14796874999996  113.705238045302 8.15125  L 78.2815724622483 8.17281249999996  L 78.1049313129195 8.87437499999999  Z " fill-rule="nonzero" fill="#e2e4e6" stroke="none" transform="matrix(1 0 0 1 1060 404 )" />
  </g>
</svg>