<?xml version="1.0" encoding="utf-8"?>
<svg version="1.1" xmlns:xlink="http://www.w3.org/1999/xlink" width="20px" height="20px" xmlns="http://www.w3.org/2000/svg">
  <g transform="matrix(1 0 0 1 -442 -148 )">
    <path d="M 19.3750193810096 15.0480575420673  C 19.3750193810096 14.6492665414663  19.0526371544471 14.3269230769231  18.6538461538462 14.3269230769231  C 18.2550551532452 14.3269230769231  17.9327116887019 14.6492665414663  17.9327116887019 15.0480575420673  L 17.9327116887019 18  L 2.06732707331731 18  L 2.06732707331731 15.0480575420673  C 2.06732707331731 14.6492665414663  1.74424704026442 14.3269230769231  1.34615384615385 14.3269230769231  C 0.948060652043269 14.3269230769231  0.624980618990384 14.6492665414663  0.624980618990384 15.0480575420673  L 0.624980618990384 18.6538461538462  C 0.624980618990384 19.0526371544471  0.948060652043269 19.3749806189904  1.34615384615385 19  L 18.6538461538462 19  C 19.0526371544471 19.3749806189904  19.3750193810096 19.0526371544471  19.3750193810096 18.6538461538462  L 19.3750193810096 15.0480575420673  Z M 16.4068621995192 7.71459844501202  C 16.690245304988 7.43404525991586  16.6909818734976 6.97683313551683  16.4097309044471 6.69488438251202  L 10.5704103140024 0.851454522235577  C 10.4268967322716 0.707243134014423  10.2393831655649 0.638006167367788  10.0526061448317 0.639440519831731  C 10.0273691631611 0.637269598858173  10.0057374549279 0.625019381009615  9.98050045072115 0.625019381009615  C 9.87521063701923 0.625019381009615  9.77713139272836 0.649519816706731  9.68699926382211 0.689914505709135  C 9.59613058894231 0.72453300030048  9.50960375600962 0.777177907151442  9.43602492487981 0.850717953725961  L 3.59178099459135 6.69034868539663  C 3.30979345703125 6.97159965444712  3.30909567307692 7.42807521033654  3.59104442608173 7.71006274789663  C 3.73165051832933 7.85140540865385  3.91629538010817 7.92207675030048  4.10163802584135 7.92207675030048  C 4.2862441030649 7.92207675030048  4.47015239633413 7.85140540865385  4.61149505709135 7.71149712289664  L 9.25932722355769 3.06540942758414  L 9.25932722355769 15.76926953125  C 9.25932722355769 16.168060531851  9.58240725661058 16.4904039963942  9.98050045072115 16.4904039963942  C 10.3785936448317 16.4904039963942  10.7016736778846 16.168060531851  10.7016736778846 15.76926953125  L 10.7016736778846 3.03005438701923  L 15.3871481370192 7.71169095552885  C 15.5277930138221 7.85303361628606  15.7138334435096 7.92444152644231  15.8984395207332 7.92444152644231  C 16.0830455979567 7.92444152644231  16.2662173227163 7.85450675330529  16.4068621995192 7.71459844501202  Z " fill-rule="nonzero" fill="#272636" stroke="none" transform="matrix(1 0 0 1 442 148 )" />
  </g>
</svg>