<?xml version="1.0" encoding="utf-8"?>
<svg version="1.1" xmlns:xlink="http://www.w3.org/1999/xlink" width="88px" height="88px" xmlns="http://www.w3.org/2000/svg">
  <g transform="matrix(1 0 0 1 -478 -240 )">
    <path d="M 479 244  A 3 3 0 0 1 482 241 L 562 241  A 3 3 0 0 1 565 244 L 565 324  A 3 3 0 0 1 562 327 L 482 327  A 3 3 0 0 1 479 324 L 479 244  Z " fill-rule="nonzero" fill="#f2f2f2" stroke="none" />
    <path d="M 478.5 244  A 3.5 3.5 0 0 1 482 240.5 L 562 240.5  A 3.5 3.5 0 0 1 565.5 244 L 565.5 324  A 3.5 3.5 0 0 1 562 327.5 L 482 327.5  A 3.5 3.5 0 0 1 478.5 324 L 478.5 244  Z " stroke-width="1" stroke-dasharray="3,1" stroke="#d8d8d8" fill="none" stroke-dashoffset="0.5" />
  </g>
</svg>