<?xml version="1.0" encoding="utf-8"?>
<svg version="1.1" xmlns:xlink="http://www.w3.org/1999/xlink" width="15px" height="15px" xmlns="http://www.w3.org/2000/svg">
  <g transform="matrix(1 0 0 1 -293 -150 )">
    <path d="M 12.9779411764706 11.6452205882353  C 13.1495098039216 11.4736519607843  13.2352941176471 11.2683823529412  13.2352941176471 11.0294117647059  C 13.2352941176471 10.7843137254902  13.1495098039216 10.5759803921569  12.9779411764706 10.4044117647059  L 11.0661764705882 8.49264705882353  C 10.8946078431373 8.32107843137255  10.6862745098039 8.23529411764706  10.4411764705882 8.23529411764706  C 10.1838235294118 8.23529411764706  9.96323529411765 8.33333333333333  9.77941176470588 8.52941176470588  C 9.79779411764706 8.54779411764706  9.85600490196079 8.60447303921569  9.95404411764706 8.69944852941176  C 10.0520833333333 8.79442401960784  10.1179534313726 8.86029411764706  10.1516544117647 8.89705882352941  C 10.1853553921569 8.93382352941176  10.2313112745098 8.99203431372549  10.2895220588235 9.07169117647059  C 10.3477328431373 9.15134803921569  10.3875612745098 9.22947303921569  10.4090073529412 9.30606617647059  C 10.4304534313726 9.38265931372549  10.4411764705882 9.46691176470588  10.4411764705882 9.55882352941176  C 10.4411764705882 9.80392156862745  10.3553921568627 10.0122549019608  10.1838235294118 10.1838235294118  C 10.0122549019608 10.3553921568627  9.80392156862745 10.4411764705882  9.55882352941176 10.4411764705882  C 9.46691176470588 10.4411764705882  9.38265931372549 10.4304534313726  9.30606617647059 10.4090073529412  C 9.22947303921569 10.3875612745098  9.15134803921569 10.3477328431373  9.07169117647059 10.2895220588235  C 8.99203431372549 10.2313112745098  8.93382352941177 10.1853553921569  8.89705882352941 10.1516544117647  C 8.86029411764706 10.1179534313725  8.79442401960784 10.0520833333333  8.69944852941176 9.95404411764706  C 8.60447303921569 9.85600490196078  8.54779411764706 9.79779411764706  8.52941176470588 9.77941176470588  C 8.32720588235294 9.96936274509804  8.22610294117647 10.1930147058824  8.22610294117647 10.4503676470588  C 8.22610294117647 10.6954656862745  8.31188725490196 10.9037990196078  8.48345588235294 11.0753676470588  L 10.3768382352941 12.9779411764706  C 10.5422794117647 13.1433823529412  10.750612745098 13.2261029411765  11.0018382352941 13.2261029411765  C 11.2469362745098 13.2261029411765  11.4552696078431 13.1464460784314  11.6268382352941 12.9871323529412  L 12.9779411764706 11.6452205882353  Z M 6.47058823529412 5.22058823529412  C 6.67279411764706 5.03063725490196  6.77389705882353 4.80698529411765  6.77389705882353 4.54963235294118  C 6.77389705882353 4.30453431372549  6.68811274509804 4.09620098039216  6.51654411764706 3.92463235294118  L 4.62316176470588 2.02205882352941  C 4.4515931372549 1.85049019607843  4.24325980392157 1.76470588235294  3.99816176470588 1.76470588235294  C 3.75919117647059 1.76470588235294  3.55085784313726 1.84742647058824  3.37316176470588 2.01286764705882  L 2.02205882352941 3.35477941176471  C 1.85049019607843 3.52634803921569  1.76470588235294 3.73161764705882  1.76470588235294 3.97058823529412  C 1.76470588235294 4.2156862745098  1.85049019607843 4.42401960784314  2.02205882352941 4.59558823529412  L 3.93382352941176 6.50735294117647  C 4.09926470588235 6.67279411764706  4.30759803921569 6.75551470588235  4.55882352941176 6.75551470588235  C 4.81617647058824 6.75551470588235  5.03676470588235 6.66053921568627  5.22058823529412 6.47058823529412  C 5.20220588235294 6.45220588235294  5.14399509803922 6.39552696078431  5.04595588235294 6.30055147058824  C 4.94791666666667 6.20557598039216  4.88204656862745 6.13970588235294  4.84834558823529 6.10294117647059  C 4.81464460784314 6.06617647058824  4.7686887254902 6.00796568627451  4.71047794117647 5.92830882352941  C 4.65226715686275 5.84865196078431  4.6124387254902 5.77052696078431  4.59099264705882 5.69393382352941  C 4.56954656862745 5.61734068627451  4.55882352941176 5.53308823529412  4.55882352941176 5.44117647058824  C 4.55882352941176 5.19607843137255  4.64460784313725 4.98774509803921  4.81617647058824 4.81617647058823  C 4.98774509803922 4.64460784313725  5.19607843137255 4.55882352941177  5.44117647058824 4.55882352941177  C 5.53308823529412 4.55882352941177  5.61734068627451 4.56954656862745  5.69393382352941 4.59099264705882  C 5.77052696078431 4.6124387254902  5.84865196078431 4.65226715686274  5.92830882352941 4.71047794117647  C 6.00796568627451 4.7686887254902  6.06617647058824 4.81464460784314  6.10294117647059 4.84834558823529  C 6.13970588235294 4.88204656862745  6.20557598039216 4.94791666666667  6.30055147058824 5.04595588235294  C 6.39552696078431 5.14399509803921  6.45220588235294 5.20220588235294  6.47058823529412 5.22058823529412  Z M 14.2279411764706 9.15441176470588  C 14.7426470588235 9.66911764705882  15 10.2941176470588  15 11.0294117647059  C 15 11.7647058823529  14.7395833333333 12.3866421568627  14.21875 12.8952205882353  L 12.8676470588235 14.2371323529412  C 12.359068627451 14.7457107843137  11.7371323529412 15  11.0018382352941 15  C 10.2604166666667 15  9.63541666666667 14.7395833333333  9.12683823529412 14.21875  L 7.23345588235294 12.3161764705882  C 6.72487745098039 11.8075980392157  6.47058823529412 11.1856617647059  6.47058823529412 10.4503676470588  C 6.47058823529412 9.69669117647059  6.74019607843137 9.05637254901961  7.27941176470588 8.52941176470588  L 6.47058823529412 7.72058823529412  C 5.94362745098039 8.25980392156863  5.30637254901961 8.52941176470588  4.55882352941176 8.52941176470588  C 3.82352941176471 8.52941176470588  3.19852941176471 8.27205882352941  2.68382352941176 7.75735294117647  L 0.772058823529412 5.84558823529412  C 0.257352941176471 5.33088235294118  0 4.70588235294118  0 3.97058823529412  C 0 3.23529411764706  0.260416666666667 2.61335784313725  0.78125 2.10477941176471  L 2.13235294117647 0.762867647058824  C 2.64093137254902 0.254289215686274  3.26286764705882 0  3.99816176470588 0  C 4.73958333333333 0  5.36458333333333 0.260416666666666  5.87316176470588 0.781250000000001  L 7.76654411764706 2.68382352941177  C 8.27512254901961 3.19240196078431  8.52941176470588 3.81433823529412  8.52941176470588 4.54963235294118  C 8.52941176470588 5.30330882352941  8.25980392156863 5.94362745098039  7.72058823529412 6.47058823529412  L 8.52941176470588 7.27941176470588  C 9.05637254901961 6.74019607843137  9.69362745098039 6.47058823529412  10.4411764705882 6.47058823529412  C 11.1764705882353 6.47058823529412  11.8014705882353 6.72794117647059  12.3161764705882 7.24264705882353  L 14.2279411764706 9.15441176470588  Z " fill-rule="nonzero" fill="#2eba80" stroke="none" transform="matrix(1 0 0 1 293 150 )" />
  </g>
</svg>