<?xml version="1.0" encoding="utf-8"?>
<svg version="1.1" xmlns:xlink="http://www.w3.org/1999/xlink" width="26px" height="26px" xmlns="http://www.w3.org/2000/svg">
  <defs>
    <filter x="424px" y="149px" width="26px" height="26px" filterUnits="userSpaceOnUse" id="filter45">
      <feOffset dx="0" dy="2" in="SourceAlpha" result="shadowOffsetInner" />
      <feGaussianBlur stdDeviation="1.5" in="shadowOffsetInner" result="shadowGaussian" />
      <feComposite in2="shadowGaussian" operator="atop" in="SourceAlpha" result="shadowComposite" />
      <feColorMatrix type="matrix" values="0 0 0 0 0.6  0 0 0 0 0.6  0 0 0 0 0.6  0 0 0 0.349019607843137 0  " in="shadowComposite" />
    </filter>
    <g id="widget46">
      <path d="M 437 150  C 442.6 150  447 154.4  447 160  C 447 165.6  442.6 170  437 170  C 431.4 170  427 165.6  427 160  C 427 154.4  431.4 150  437 150  Z " fill-rule="nonzero" fill="#ffffff" stroke="none" />
      <path d="M 437 150.5  C 442.32 150.5  446.5 154.68  446.5 160  C 446.5 165.32  442.32 169.5  437 169.5  C 431.68 169.5  427.5 165.32  427.5 160  C 427.5 154.68  431.68 150.5  437 150.5  Z " stroke-width="1" stroke="#ffffff" fill="none" />
    </g>
  </defs>
  <g transform="matrix(1 0 0 1 -424 -149 )">
    <use xlink:href="#widget46" filter="url(#filter45)" />
    <use xlink:href="#widget46" />
  </g>
</svg>