<?xml version="1.0" encoding="utf-8"?>
<svg version="1.1" xmlns:xlink="http://www.w3.org/1999/xlink" width="20px" height="19px" xmlns="http://www.w3.org/2000/svg">
  <g transform="matrix(1 0 0 1 -446 -261 )">
    <path d="M 15.15625 17.254375  C 15.3084935897436 17.1039583333333  15.3846153846154 16.9258333333333  15.3846153846154 16.72  C 15.3846153846154 16.5141666666667  15.3084935897436 16.3360416666667  15.15625 16.185625  C 15.0040064102564 16.0352083333333  14.823717948718 15.96  14.6153846153846 15.96  C 14.4070512820513 15.96  14.2267628205128 16.0352083333333  14.0745192307692 16.185625  C 13.9222756410256 16.3360416666667  13.8461538461538 16.5141666666667  13.8461538461538 16.72  C 13.8461538461538 16.9258333333333  13.9222756410256 17.1039583333333  14.0745192307692 17.254375  C 14.2267628205128 17.4047916666667  14.4070512820513 17.48  14.6153846153846 17.48  C 14.823717948718 17.48  15.0040064102564 17.4047916666667  15.15625 17.254375  Z M 18.2331730769231 17.254375  C 18.3854166666667 17.1039583333333  18.4615384615385 16.9258333333333  18.4615384615385 16.72  C 18.4615384615385 16.5141666666667  18.3854166666667 16.3360416666667  18.2331730769231 16.185625  C 18.0809294871795 16.0352083333333  17.900641025641 15.96  17.6923076923077 15.96  C 17.4839743589744 15.96  17.3036858974359 16.0352083333333  17.1514423076923 16.185625  C 16.9991987179487 16.3360416666667  16.9230769230769 16.5141666666667  16.9230769230769 16.72  C 16.9230769230769 16.9258333333333  16.9991987179487 17.1039583333333  17.1514423076923 17.254375  C 17.3036858974359 17.4047916666667  17.4839743589744 17.48  17.6923076923077 17.48  C 17.900641025641 17.48  18.0809294871795 17.4047916666667  18.2331730769231 17.254375  Z M 19.6634615384615 13.2525  C 19.8878205128205 13.4741666666667  20 13.7433333333333  20 14.06  L 20 17.86  C 20 18.1766666666667  19.8878205128205 18.4458333333333  19.6634615384615 18.6675  C 19.4391025641026 18.8891666666667  19.1666666666667 19  18.8461538461538 19  L 1.15384615384615 19  C 0.833333333333333 19  0.560897435897436 18.8891666666667  0.336538461538462 18.6675  C 0.112179487179487 18.4458333333333  0 18.1766666666667  0 17.86  L 0 14.06  C 0 13.7433333333333  0.112179487179487 13.4741666666667  0.336538461538462 13.2525  C 0.560897435897436 13.0308333333333  0.833333333333333 12.92  1.15384615384615 12.92  L 6.28605769230769 12.92  C 6.45432692307692 13.3633333333333  6.73677884615385 13.7275  7.13341346153846 14.0125  C 7.53004807692308 14.2975  7.97275641025641 14.44  8.46153846153846 14.44  L 11.5384615384615 14.44  C 12.0272435897436 14.44  12.4699519230769 14.2975  12.8665865384615 14.0125  C 13.2632211538462 13.7275  13.5456730769231 13.3633333333333  13.7139423076923 12.92  L 18.8461538461538 12.92  C 19.1666666666667 12.92  19.4391025641026 13.0308333333333  19.6634615384615 13.2525  Z M 15.9254807692308 5.545625  C 16.1738782051282 5.783125  16.229967948718 6.05625  16.09375 6.365  C 15.9575320512821 6.68166666666666  15.7211538461538 6.84  15.3846153846154 6.84  L 12.3076923076923 6.84  L 12.3076923076923 12.16  C 12.3076923076923 12.3658333333333  12.2315705128205 12.5439583333333  12.0793269230769 12.694375  C 11.9270833333333 12.8447916666667  11.7467948717949 12.92  11.5384615384615 12.92  L 8.46153846153846 12.92  C 8.25320512820513 12.92  8.07291666666667 12.8447916666667  7.92067307692308 12.694375  C 7.76842948717949 12.5439583333333  7.69230769230769 12.3658333333333  7.69230769230769 12.16  L 7.69230769230769 6.84  L 4.61538461538462 6.84  C 4.27884615384615 6.84  4.04246794871795 6.68166666666666  3.90625 6.365  C 3.77003205128205 6.05625  3.8261217948718 5.783125  4.07451923076923 5.545625  L 9.45913461538462 0.225624999999999  C 9.60336538461539 0.0752083333333324  9.78365384615385 0  10 0  C 10.2163461538462 0  10.3966346153846 0.0752083333333324  10.5408653846154 0.225624999999999  L 15.9254807692308 5.545625  Z " fill-rule="nonzero" fill="#02a7f0" stroke="none" transform="matrix(1 0 0 1 446 261 )" />
  </g>
</svg>