<?xml version="1.0" encoding="utf-8"?>
<svg version="1.1" xmlns:xlink="http://www.w3.org/1999/xlink" width="317px" height="29px" xmlns="http://www.w3.org/2000/svg">
  <g transform="matrix(1 0 0 1 -928 -352 )">
    <path d="M 1 25.4000000000015  C -0.362664691633313 22.390741735381  5.95697167391188 13.8768575839358  13.2000000000007 13.4000000000015  C 19.1086927263917 13.0109907609283  17.4960330649511 20.6104159305896  24.3500000000022 21.7999999999993  C 30.6236759080689 22.8888679486773  32.4833333333336 19.2666666666664  36.5499999999993 18  C 40.1500000000002 18.8000000000005  41.478702915105 20.9482701792427  47.3500000000022 20.4000000000015  C 53.0082923104244 19.8716205134286  53.883333333335 17.600000000001  57.1500000000014 16.2000000000007  C 60.6166666666674 16.8000000000005  64.0833333333334 17.4000000000003  67.5499999999993 18  C 71.75 16.4666666666672  73.1570120365371 13.2390050334622  80.1500000000015 13.4000000000015  C 86.3660108937131 13.5431071340433  85.0660027106392 18.1684835342373  91.1500000000015 18  C 94.8927553715038 17.8963522462643  95.5500000000004 15.8666666666662  97.75 14.7999999999993  C 101.483333333334 15.2666666666664  105.216666666667 15.7333333333336  108.950000000001 16.2000000000007  C 111.816666666667 15.2666666666676  112.945468366459 12.9236949643634  117.549999999999 13.4000000000015  C 124.710871175263 14.1407396173577  123.30847033224 20.9612747231341  129.75 20.4000000000015  C 134.75754560103 19.9636737055098  133.950000000004 17.2000000000044  138.150000000001 13.4000000000015  C 142.349999999999 9.59999999999854  143.067316868872 6.98287302305232  149.75 6.79999999999927  C 154.207144925046 6.67802929592204  156.794597487783 9.27740826631884  158.922919218016 10.6422236307449  C 160.443993951601 11.6176335687007  161.832712074761 12.6775436803459  163.75 13.4000000000015  C 167.616666666666 13.8666666666674  171.483333333332 14.3333333333333  175.349999999999 14.7999999999993  C 177.361494252872 13.9954022988499  179.372988505745 13.1908045977006  181.384482758619 12.3862068965512  C 182.706321839079 11.8574712643672  185.828160919538 8.72873563218474  187.149999999998 8.20000000000073  C 190.683333333331 7.33333333333456  191.616666666665 7.66666666666544  195.149999999998 6.79999999999927  C 197.921755943064 7.32221488782295  198.749999999996 7.80000000000291  202.149999999998 8.20000000000073  C 205.549999999999 8.59999999999854  207.145618508578 10.8869410396425  210.149999999998 10.6422236307449  C 216.450653077786 10.1290133410524  217.083333333333 8.13333333333259  220.75 6.79999999999927  C 224.483333333332 7.26666666666642  226.055145021745 9.34971307608288  231.949999999997 8.20000000000073  C 238.052425082359 7.00980313529635  236.23968070012 2.92335955451171  242.149999999998 2.5  C 248.218377109477 2.06531867411445  247.34350422107 7.34081115973942  253.349999999999 6.79999999999927  C 259.326163445543 6.26191989427116  257.40829824864 1.72395751690561  263.549999999999 0.600000000002183  C 268.888494339794 -0.376967147715561  270.35 1.86666666666741  273.75 2.5  C 276.283333333333 1.86666666666741  278.816666666666 1.23333333333477  281.349999999999 0.600000000002183  C 284.349999999999 1.66666666666788  285.375145756605 3.96555859173679  290.349999999999 3.79999999999927  C 294.548985752433 3.66026160086483  293.70144276916 0.405485665745914  297.75 0.600000000002183  C 301.07641870435 0.75981893866151  301.616666666666 2.73333333333358  303.549999999999 3.79999999999927  C 306.7 3.36666666666616  313.017754262566 2.66848726726658  313 2.5  " stroke-width="2" stroke="#7f7f7f" fill="none" transform="matrix(1 0 0 1 929 353 )" />
  </g>
</svg>